<svg width="598" height="216" viewBox="0 0 598 216" fill="none" xmlns="http://www.w3.org/2000/svg">
<g clip-path="url(#clip0_2_6)">
<path d="M114.25 162.5C117.25 159.333 119.667 157.75 121.5 157.75C123.333 157.75 124.25 158.75 124.25 160.75C124.25 162.583 123.583 164.167 122.25 165.5C113.917 176.667 102.75 186.833 88.75 196C74.9167 205 60.75 209.5 46.25 209.5C31.9167 209.5 20.9167 204.917 13.25 195.75C5.75 186.417 2 174.083 2 158.75C2 143.417 5.5 126.75 12.5 108.75C19.5 90.5833 28.5833 73.75 39.75 58.25C51.0833 42.5833 64.75 29.5833 80.75 19.25C96.9167 8.74999 113.25 3.49998 129.75 3.49998C144.083 3.49998 151.25 10.0833 151.25 23.25C151.25 32.9167 147.667 44.1667 140.5 57C133.333 69.8333 124.25 81 113.25 90.5C102.25 99.8333 92.0833 104.5 82.75 104.5C77.75 104.5 75.25 101.833 75.25 96.5C75.25 92.5 77.5833 87.5 82.25 81.5C86.9167 75.5 91.25 72.5 95.25 72.5C97.4167 72.5 98.25 74.4167 97.75 78.25C97.25 82.0833 99.0833 84 103.25 84C109.25 84 114.833 79.4167 120 70.25C125.333 61.0833 128 52.5 128 44.5C128 28 121.167 19.75 107.5 19.75C95 19.75 82.9167 25.4167 71.25 36.75C59.75 48.0833 50.5833 61.9167 43.75 78.25C37.0833 94.4167 33.75 110 33.75 125C33.75 140 37.3333 152.083 44.5 161.25C51.8333 170.25 63.1667 174.75 78.5 174.75C85 174.75 91.25 173.667 97.25 171.5C105.583 168.667 111.25 165.667 114.25 162.5ZM187.344 167L186.344 174C186.344 177 187.594 180.167 190.094 183.5C192.76 186.667 195.844 188.25 199.344 188.25C202.01 188.25 204.177 187.667 205.844 186.5C209.51 184 211.76 182.333 212.594 181.5C213.594 180.5 215.094 180 217.094 180C219.26 180 220.344 180.75 220.344 182.25C220.344 183.917 216.427 189.167 208.594 198C206.094 200.833 202.427 203.833 197.594 207C192.76 210.167 188.427 211.75 184.594 211.75C180.927 211.75 178.094 211.083 176.094 209.75C174.26 208.583 172.927 206.667 172.094 204C171.094 200.333 170.594 195.833 170.594 190.5C170.594 189.833 170.177 189.5 169.344 189.5C168.51 189.5 166.594 191.167 163.594 194.5C154.26 204.167 146.677 209 140.844 209C135.177 209 130.76 207.5 127.594 204.5C124.594 201.5 123.094 197.667 123.094 193C123.094 184.833 125.26 177.083 129.594 169.75C133.927 162.25 139.094 156.25 145.094 151.75C158.427 141.917 168.76 137 176.094 137C187.094 137.333 192.594 141.25 192.594 148.75C192.594 151.417 191.427 154.083 189.094 156.75C186.76 159.25 184.594 160.5 182.594 160.5C180.594 160.5 177.844 158.75 174.344 155.25C170.844 151.75 167.01 150 162.844 150C158.677 150 155.26 151.75 152.594 155.25C149.927 158.583 148.594 162.917 148.594 168.25C148.594 176.917 153.177 181.25 162.344 181.25C166.01 181.25 169.01 180.333 171.344 178.5C173.844 176.667 175.594 174.667 176.594 172.5C179.427 166.833 182.01 164 184.344 164C186.344 164 187.344 165 187.344 167ZM215.193 177.5C215.193 174.833 217.777 170.5 222.943 164.5C228.11 158.333 232.277 155.25 235.443 155.25C238.777 155.25 241.193 156.5 242.693 159C244.36 161.5 245.36 164.25 245.693 167.25C246.027 170.25 246.943 173 248.443 175.5C250.11 178 252.443 179.25 255.443 179.25C258.61 179.25 261.36 177.917 263.693 175.25C266.193 172.417 268.193 169.333 269.693 166C271.193 162.5 273.193 159.417 275.693 156.75C278.193 153.917 280.61 152.5 282.943 152.5C285.443 152.5 287.193 153.5 288.193 155.5C298.527 177.667 309.027 188.75 319.693 188.75C321.36 188.75 322.86 188.5 324.193 188C325.527 187.5 326.527 187.25 327.193 187.25C329.193 187.25 330.193 188.833 330.193 192C330.193 197.667 327.193 202.75 321.193 207.25C315.36 211.75 309.36 214 303.193 214C297.027 214 291.777 212 287.443 208C283.277 204 280.36 199.917 278.693 195.75C277.193 191.417 276.027 187.25 275.193 183.25C274.527 179.25 273.777 177.25 272.943 177.25C271.61 177.25 268.943 179.917 264.943 185.25C261.11 190.417 256.693 195.667 251.693 201C246.86 206.333 242.527 209 238.693 209C234.693 208.5 231.527 206.5 229.193 203C226.86 199.667 225.36 196.167 224.693 192.5C223.193 182.5 220.027 177.5 215.193 177.5ZM380.777 104.25C380.777 124.75 382.527 141.5 386.027 154.5C390.194 143.833 393.611 131.917 396.277 118.75C399.111 105.417 400.527 96 400.527 90.5C400.527 72.8333 398.277 64 393.777 64C389.944 64 386.777 68.8333 384.277 78.5C381.944 88 380.777 96.5833 380.777 104.25ZM417.777 186.25L427.277 183.75C429.444 183.75 430.527 184.667 430.527 186.5C430.527 188 429.111 190.333 426.277 193.5C423.444 196.5 419.361 199.667 414.027 203C408.694 206.333 403.527 208 398.527 208C387.527 208 379.611 202 374.777 190C365.111 201.833 354.111 207.75 341.777 207.75C335.444 207.75 330.861 205.417 328.027 200.75C325.194 196.25 323.777 190.583 323.777 183.75C323.777 174.583 328.777 165.167 338.777 155.5C348.944 145.833 356.944 141 362.777 141C364.277 141 365.277 141.917 365.777 143.75C365.777 145.083 363.611 147.167 359.277 150C352.777 154 349.527 159.167 349.527 165.5C349.527 172.5 351.444 177 355.277 179C358.111 180.667 360.694 181.5 363.027 181.5C365.527 181.5 368.194 180.333 371.027 178C369.194 169 368.277 158.167 368.277 145.5C368.277 132.667 369.277 119.167 371.277 105C373.444 90.6667 376.861 77.6667 381.527 66C386.361 54.3333 391.777 48.5 397.777 48.5C401.611 48.5 404.444 51.1667 406.277 56.5C408.111 61.8333 409.027 68.4167 409.027 76.25C409.027 84.0833 407.361 97.0833 404.027 115.25C400.861 133.25 396.027 149.75 389.527 164.75C395.694 179.083 405.111 186.25 417.777 186.25ZM436.717 121.25C434.217 118.417 432.967 114.917 432.967 110.75C432.967 106.583 434.217 103.083 436.717 100.25C439.383 97.4167 442.633 96 446.467 96C450.3 96 453.467 97.4167 455.967 100.25C458.633 103.083 459.967 106.583 459.967 110.75C459.967 114.917 458.633 118.417 455.967 121.25C453.467 124.083 450.3 125.5 446.467 125.5C442.633 125.5 439.383 124.083 436.717 121.25ZM488.717 175.75C490.383 174.417 491.883 173.75 493.217 173.75C495.55 173.75 496.717 175.25 496.717 178.25C496.717 182.417 491.55 188.667 481.217 197C470.883 205.167 461.967 209.25 454.467 209.25C446.967 209.25 441.133 206.583 436.967 201.25C432.8 195.917 430.717 189.083 430.717 180.75C430.717 172.25 432.133 164.083 434.967 156.25C437.8 148.417 440.633 144.5 443.467 144.5C444.8 144.667 445.467 146.75 445.467 150.75C445.467 154.583 446.05 158.833 447.217 163.5C448.383 168.167 450.883 172.667 454.717 177C458.717 181.167 463.8 183.25 469.967 183.25C476.3 183.25 482.55 180.75 488.717 175.75ZM546.061 104.25C546.061 124.75 547.811 141.5 551.311 154.5C555.477 143.833 558.894 131.917 561.561 118.75C564.394 105.417 565.811 96 565.811 90.5C565.811 72.8333 563.561 64 559.061 64C555.227 64 552.061 68.8333 549.561 78.5C547.227 88 546.061 96.5833 546.061 104.25ZM583.061 186.25L592.561 183.75C594.727 183.75 595.811 184.667 595.811 186.5C595.811 188 594.394 190.333 591.561 193.5C588.727 196.5 584.644 199.667 579.311 203C573.977 206.333 568.811 208 563.811 208C552.811 208 544.894 202 540.061 190C530.394 201.833 519.394 207.75 507.061 207.75C500.727 207.75 496.144 205.417 493.311 200.75C490.477 196.25 489.061 190.583 489.061 183.75C489.061 174.583 494.061 165.167 504.061 155.5C514.227 145.833 522.227 141 528.061 141C529.561 141 530.561 141.917 531.061 143.75C531.061 145.083 528.894 147.167 524.561 150C518.061 154 514.811 159.167 514.811 165.5C514.811 172.5 516.727 177 520.561 179C523.394 180.667 525.977 181.5 528.311 181.5C530.811 181.5 533.477 180.333 536.311 178C534.477 169 533.561 158.167 533.561 145.5C533.561 132.667 534.561 119.167 536.561 105C538.727 90.6667 542.144 77.6667 546.811 66C551.644 54.3333 557.061 48.5 563.061 48.5C566.894 48.5 569.727 51.1667 571.561 56.5C573.394 61.8333 574.311 68.4167 574.311 76.25C574.311 84.0833 572.644 97.0833 569.311 115.25C566.144 133.25 561.311 149.75 554.811 164.75C560.977 179.083 570.394 186.25 583.061 186.25Z" fill="#FF0000"/>
</g>
<defs>
<clipPath id="clip0_2_6">
<rect width="598" height="216" fill="white"/>
</clipPath>
</defs>
</svg>
