<svg xmlns="http://www.w3.org/2000/svg" width="103" height="103" fill="none" xmlns:v="https://vecta.io/nano"><path d="M48.75 1.443a5 5 0 0 1 5 0l39.384 22.738a5 5 0 0 1 2.5 4.33v45.476a5 5 0 0 1-2.5 4.33L53.75 101.057a5 5 0 0 1-5 0L9.366 78.318a5 5 0 0 1-2.5-4.33V28.512a5 5 0 0 1 2.5-4.33L48.75 1.443z" fill="#bd0000"/><g fill-rule="evenodd"><path d="M53.5 1.443a5 5 0 0 0-5 0L9.333 24.057a5 5 0 0 0-2.5 4.33v45.226c0 .893.238 1.752.669 2.499L94.693 26.26a5 5 0 0 0-2.025-2.204L53.5 1.443z" fill="red"/><path d="M53.5 66.557l9.565-5.522 13.985-7.977v.029c.279-.108.583-.167.9-.167a2.5 2.5 0 0 1 2.495 2.339v9.855a5 5 0 0 1-2.5 4.33L53.5 83.557a5 5 0 0 1-5 0L24.055 69.443a5 5 0 0 1-2.5-4.33V36.887a5 5 0 0 1 2.5-4.33L48.5 18.443a5 5 0 0 1 5 0l19.795 11.429-14.812 8.449-4.983-2.877a5 5 0 0 0-5 0l-9.722 5.613a5 5 0 0 0-2.5 4.33v11.226a5 5 0 0 0 2.5 4.33l9.722 5.613a5 5 0 0 0 5 0z" fill="#a6a6a6"/><path d="M48.5 18.443a5 5 0 0 1 5 0l23.903 13.801a2.49 2.49 0 0 1 .581.685 2.5 2.5 0 0 1-.761 3.319l-8.904 5.091-.024-.022c-1.586.825-3.536.751-5.069-.266l-.004.005-9.722-5.613a5 5 0 0 0-5 0l-9.722 5.613a5 5 0 0 0-2.5 4.33v11.226c0 .942.265 1.846.742 2.622l-14.76 8.439a5 5 0 0 1-.705-2.561V36.887a5 5 0 0 1 2.5-4.33L48.5 18.443z" fill="#fff"/></g></svg>