<svg width="500" height="500" viewBox="0 0 500 500" fill="none" xmlns="http://www.w3.org/2000/svg">
<g clip-path="url(#clip0_2_5)">
<rect width="500" height="500" fill="white"/>
<rect width="500" height="500" fill="#FF0000"/>
<path d="M310.5 361C316.5 354.667 321.333 351.5 325 351.5C328.667 351.5 330.5 353.5 330.5 357.5C330.5 361.167 329.167 364.333 326.5 367C309.833 389.333 287.5 409.667 259.5 428C231.833 446 203.5 455 174.5 455C145.833 455 123.833 445.833 108.5 427.5C93.5 408.833 86 384.167 86 353.5C86 322.833 93 289.5 107 253.5C121 217.167 139.167 183.5 161.5 152.5C184.167 121.167 211.5 95.1667 243.5 74.5C275.833 53.5 308.5 43 341.5 43C370.167 43 384.5 56.1666 384.5 82.5C384.5 101.833 377.333 124.333 363 150C348.667 175.667 330.5 198 308.5 217C286.5 235.667 266.167 245 247.5 245C237.5 245 232.5 239.667 232.5 229C232.5 221 237.167 211 246.5 199C255.833 187 264.5 181 272.5 181C276.833 181 278.5 184.833 277.5 192.5C276.5 200.167 280.167 204 288.5 204C300.5 204 311.667 194.833 322 176.5C332.667 158.167 338 141 338 125C338 92 324.333 75.5 297 75.5C272 75.5 247.833 86.8333 224.5 109.5C201.5 132.167 183.167 159.833 169.5 192.5C156.167 224.833 149.5 256 149.5 286C149.5 316 156.667 340.167 171 358.5C185.667 376.5 208.333 385.5 239 385.5C252 385.5 264.5 383.333 276.5 379C293.167 373.333 304.5 367.333 310.5 361Z" fill="white"/>
</g>
<defs>
<clipPath id="clip0_2_5">
<rect width="500" height="500" fill="white"/>
</clipPath>
</defs>
</svg>
